<?xml version="1.0" encoding="UTF-8"?>
<svg xmlns="http://www.w3.org/2000/svg" 
     fill="none" 
     viewBox="0 0 24 24" 
     stroke="currentColor"
     stroke-width="1.5"
     aria-hidden="true" 
     role="img"
     aria-label="Chart Icon">
    <style>
        .chart-pie { 
            animation: rotate 8s linear infinite;
            transform-origin: 12px 12px;
        }
        .chart-segment { 
            animation: expand 3s ease-in-out infinite;
            transform-origin: 12px 12px;
        }
        .chart-legend { 
            animation: fade 2s ease-in-out infinite alternate;
        }
        
        @keyframes rotate {
            0% { transform: rotate(0deg); }
            100% { transform: rotate(360deg); }
        }
        
        @keyframes expand {
            0%, 100% { transform: scale(1); }
            50% { transform: scale(1.05); }
        }
        
        @keyframes fade {
            0% { opacity: 0.6; }
            100% { opacity: 1; }
        }
        
        svg:hover .chart-pie { 
            animation-duration: 4s; 
        }
        svg:hover .chart-segment { 
            animation-duration: 1.5s; 
        }
        svg:hover .chart-legend { 
            animation-duration: 1s; 
        }
        
        @media (prefers-color-scheme: dark) {
            .chart-legend { opacity: 0.8; }
            .chart-segment { opacity: 0.9; }
        }
        
        @media (prefers-reduced-motion: reduce) {
            .chart-pie, .chart-segment, .chart-legend { animation: none; }
        }
    </style>
    
    <!-- Pie chart base -->
    <circle class="chart-pie" cx="12" cy="12" r="8" opacity="0.1" fill="currentColor" />
    
    <!-- Chart segments -->
    <g class="chart-segment">
        <path d="M12 4 A8 8 0 0 1 18.83 8.17 L12 12 Z" fill="currentColor" opacity="0.7" />
        <path d="M18.83 8.17 A8 8 0 0 1 18.83 15.83 L12 12 Z" fill="currentColor" opacity="0.5" />
        <path d="M18.83 15.83 A8 8 0 0 1 12 20 L12 12 Z" fill="currentColor" opacity="0.3" />
        <path d="M12 20 A8 8 0 0 1 5.17 15.83 L12 12 Z" fill="currentColor" opacity="0.6" />
        <path d="M5.17 15.83 A8 8 0 0 1 12 4 L12 12 Z" fill="currentColor" opacity="0.4" />
    </g>
    
    <!-- Chart outline -->
    <circle cx="12" cy="12" r="8" stroke-width="1.5" />
    
    <!-- Legend indicators -->
    <g class="chart-legend">
        <rect x="2" y="3" width="2" height="1" fill="currentColor" opacity="0.7" />
        <rect x="2" y="5" width="2" height="1" fill="currentColor" opacity="0.5" />
        <rect x="2" y="7" width="2" height="1" fill="currentColor" opacity="0.3" />
        <rect x="2" y="9" width="2" height="1" fill="currentColor" opacity="0.6" />
        <rect x="2" y="11" width="2" height="1" fill="currentColor" opacity="0.4" />
    </g>
    
    <!-- Data points -->
    <circle cx="12" cy="12" r="1" fill="currentColor" opacity="0.8" />
    <circle cx="15" cy="8" r="0.5" fill="currentColor" opacity="0.6" />
    <circle cx="17" cy="12" r="0.5" fill="currentColor" opacity="0.6" />
    <circle cx="15" cy="16" r="0.5" fill="currentColor" opacity="0.6" />
    <circle cx="9" cy="16" r="0.5" fill="currentColor" opacity="0.6" />
</svg>
