<svg xmlns="http://www.w3.org/2000/svg" viewBox="0 0 24 24" fill="none" stroke="currentColor" stroke-width="2" stroke-linecap="round" stroke-linejoin="round">
  <path d="M22 16.92v3a2 2 0 0 1-2.18 2 19.79 19.79 0 0 1-8.63-3.07 19.5 19.5 0 0 1-6-6 19.79 19.79 0 0 1-3.07-8.67A2 2 0 0 1 4.11 2h3a2 2 0 0 1 2 1.72 12.84 12.84 0 0 0 .7 2.81 2 2 0 0 1-.45 2.11L8.09 9.91a16 16 0 0 0 6 6l1.27-1.27a2 2 0 0 1 2.11-.45 12.84 12.84 0 0 0 2.81.7A2 2 0 0 1 22 16.92z">
    <animate
      attributeName="stroke-dasharray"
      from="0,150"
      to="150,150"
      dur="1.5s"
      begin="0s"
      fill="freeze"
    />
    <animate
      attributeName="stroke-dashoffset"
      from="150"
      to="0"
      dur="1.5s"
      begin="0s"
      fill="freeze"
    />
  </path>
  <circle cx="12" cy="12" r="0" fill="currentColor">
    <animate
      attributeName="r"
      from="0"
      to="3"
      dur="0.5s"
      begin="1.5s"
      fill="freeze"
    />
    <animate
      attributeName="opacity"
      from="1"
      to="0"
      dur="1s"
      begin="2s"
      repeatCount="indefinite"
    />
  </circle>
</svg>
