<?xml version="1.0" encoding="UTF-8"?>
<svg xmlns="http://www.w3.org/2000/svg" 
     fill="none" 
     viewBox="0 0 24 24" 
     stroke="currentColor"
     stroke-width="1.5"
     aria-hidden="true" 
     role="img"
     aria-label="TechPlanner Icon">
    <style>
        .tech-device { 
            animation: glow 3s ease-in-out infinite;
            transform-origin: 12px 12px;
        }
        .tech-signal { 
            animation: transmit 2s ease-in-out infinite;
        }
        .tech-schedule { 
            animation: tick 4s ease-in-out infinite;
            transform-origin: 18px 6px;
        }
        
        @keyframes glow {
            0%, 100% { opacity: 0.8; }
            50% { opacity: 1; }
        }
        
        @keyframes transmit {
            0%, 100% { opacity: 0.4; }
            50% { opacity: 0.8; }
        }
        
        @keyframes tick {
            0%, 100% { transform: scale(1); }
            50% { transform: scale(1.1); }
        }
        
        svg:hover .tech-device { 
            animation-duration: 1.5s; 
        }
        svg:hover .tech-signal { 
            animation-duration: 1s; 
        }
        svg:hover .tech-schedule { 
            animation-duration: 2s; 
        }
        
        @media (prefers-color-scheme: dark) {
            .tech-signal { opacity: 0.6; }
            .tech-schedule { opacity: 0.9; }
        }
        
        @media (prefers-reduced-motion: reduce) {
            .tech-device, .tech-signal, .tech-schedule { animation: none; }
        }
    </style>
    
    <!-- Device/tablet -->
    <g class="tech-device">
        <rect x="6" y="4" width="12" height="16" rx="2" ry="2" />
        <rect x="8" y="6" width="8" height="10" rx="1" opacity="0.3" fill="currentColor" />
        <circle cx="12" cy="18" r="1" opacity="0.6" />
    </g>
    
    <!-- Signal waves -->
    <g class="tech-signal">
        <path stroke-linecap="round" d="M3 8c1 1 1 3 0 4" opacity="0.6" />
        <path stroke-linecap="round" d="M1 6c2 2 2 6 0 8" opacity="0.4" />
        <path stroke-linecap="round" d="M21 8c-1 1-1 3 0 4" opacity="0.6" />
        <path stroke-linecap="round" d="M23 6c-2 2-2 6 0 8" opacity="0.4" />
    </g>
    
    <!-- Schedule indicator -->
    <g class="tech-schedule">
        <circle cx="18" cy="6" r="2" stroke-width="1" opacity="0.7" />
        <path stroke-linecap="round" d="M18 5v1.5l1 1" stroke-width="1" opacity="0.8" />
    </g>
    
    <!-- Planning grid -->
    <g opacity="0.4">
        <path stroke-linecap="round" d="M8 8h8M8 10h6M8 12h8M8 14h4" stroke-width="0.5" />
    </g>
    
    <!-- Tech indicators -->
    <circle cx="10" cy="9" r="0.5" fill="currentColor" opacity="0.6" />
    <circle cx="14" cy="11" r="0.5" fill="currentColor" opacity="0.8" />
    <circle cx="12" cy="13" r="0.5" fill="currentColor" opacity="0.6" />
    
    <!-- Connection points -->
    <circle cx="6" cy="2" r="0.5" fill="currentColor" opacity="0.5" />
    <circle cx="18" cy="2" r="0.5" fill="currentColor" opacity="0.5" />
</svg>
