<?xml version="1.0" encoding="UTF-8"?>
<svg xmlns="http://www.w3.org/2000/svg" 
     fill="none" 
     viewBox="0 0 24 24" 
     stroke="currentColor"
     stroke-width="1.5"
     aria-hidden="true" 
     role="img">
    <style>
        @keyframes employee-float {
            0%, 100% { transform: translateY(0px); }
            50% { transform: translateY(-2px); }
        }
        @keyframes briefcase-swing {
            0%, 100% { transform: rotate(-2deg); }
            50% { transform: rotate(2deg); }
        }
        .employee-main {
            transition: all 0.3s ease-in-out;
        }
        .briefcase {
            transition: all 0.3s ease-in-out;
            transform-origin: 16px 12px;
        }
        .office-building {
            opacity: 0.6;
            transition: opacity 0.3s ease-in-out;
        }
        svg:hover .employee-main {
            animation: employee-float 2s ease-in-out infinite;
        }
        svg:hover .briefcase {
            animation: briefcase-swing 1.5s ease-in-out infinite;
        }
        svg:hover .office-building {
            opacity: 0.9;
        }
    </style>
    
    <!-- Edificio Ufficio (Sfondo) -->
    <g class="office-building">
        <rect x="2" y="16" width="4" height="6" rx="0.5" />
        <rect x="2.5" y="17" width="1" height="1" opacity="0.7" />
        <rect x="4.5" y="17" width="1" height="1" opacity="0.7" />
        <rect x="2.5" y="19" width="1" height="1" opacity="0.7" />
        <rect x="4.5" y="19" width="1" height="1" opacity="0.7" />
    </g>
    
    <!-- Dipendente Principale -->
    <g class="employee-main">
        <!-- Testa -->
        <circle cx="12" cy="8" r="3" />
        
        <!-- Corpo -->
        <path stroke-linecap="round" 
              stroke-linejoin="round" 
              d="M6 20a6 6 0 0112 0" />
        
        <!-- Cravatta/Colletto -->
        <path stroke-linecap="round" 
              stroke-linejoin="round" 
              d="M10.5 11.5l1.5 2.5 1.5-2.5" 
              stroke-width="1" />
    </g>

    <!-- Valigetta/Briefcase -->
    <g class="briefcase">
        <rect x="15" y="11" width="4" height="3" rx="0.5" />
        <path stroke-linecap="round" 
              stroke-linejoin="round" 
              d="M16 11v-1a1 1 0 011-1h0a1 1 0 011 1v1" 
              stroke-width="0.8" />
        <line x1="16.5" y1="12.5" x2="17.5" y2="12.5" stroke-width="0.5" />
    </g>
    
    <!-- Indicatore Status -->
    <circle cx="20" cy="4" r="1.5"
            fill="currentColor"
            opacity="0.8" />
</svg>
